<svg id="visual" viewBox="0 0 900 600" width="900" height="600" xmlns="http://www.w3.org/2000/svg" xmlns:xlink="http://www.w3.org/1999/xlink" version="1.1"><rect x="0" y="0" width="900" height="600" fill="#1e1e1e"></rect><path d="M0 321L37.5 336.2C75 351.3 150 381.7 225 396.8C300 412 375 412 450 406C525 400 600 388 675 370.3C750 352.7 825 329.3 862.5 317.7L900 306L900 601L862.5 601C825 601 750 601 675 601C600 601 525 601 450 601C375 601 300 601 225 601C150 601 75 601 37.5 601L0 601Z" fill="#303030"></path><path d="M0 344L37.5 345.3C75 346.7 150 349.3 225 355.7C300 362 375 372 450 380.3C525 388.7 600 395.3 675 391.7C750 388 825 374 862.5 367L900 360L900 601L862.5 601C825 601 750 601 675 601C600 601 525 601 450 601C375 601 300 601 225 601C150 601 75 601 37.5 601L0 601Z" fill="#292929"></path><path d="M0 397L37.5 405.2C75 413.3 150 429.7 225 440.5C300 451.3 375 456.7 450 454.5C525 452.3 600 442.7 675 432.3C750 422 825 411 862.5 405.5L900 400L900 601L862.5 601C825 601 750 601 675 601C600 601 525 601 450 601C375 601 300 601 225 601C150 601 75 601 37.5 601L0 601Z" fill="#232323"></path><path d="M0 480L37.5 476.3C75 472.7 150 465.3 225 460.8C300 456.3 375 454.7 450 456.5C525 458.3 600 463.7 675 468.2C750 472.7 825 476.3 862.5 478.2L900 480L900 601L862.5 601C825 601 750 601 675 601C600 601 525 601 450 601C375 601 300 601 225 601C150 601 75 601 37.5 601L0 601Z" fill="#1d1d1d"></path><path d="M0 511L37.5 513.5C75 516 150 521 225 518C300 515 375 504 450 502.3C525 500.7 600 508.3 675 507.7C750 507 825 498 862.5 493.5L900 489L900 601L862.5 601C825 601 750 601 675 601C600 601 525 601 450 601C375 601 300 601 225 601C150 601 75 601 37.5 601L0 601Z" fill="#171717"></path><path d="M0 535L37.5 539.3C75 543.7 150 552.3 225 557.7C300 563 375 565 450 565C525 565 600 563 675 563.3C750 563.7 825 566.3 862.5 567.7L900 569L900 601L862.5 601C825 601 750 601 675 601C600 601 525 601 450 601C375 601 300 601 225 601C150 601 75 601 37.5 601L0 601Z" fill="#101010"></path></svg>