<svg id="visual" viewBox="0 0 900 600" width="900" height="600" xmlns="http://www.w3.org/2000/svg" xmlns:xlink="http://www.w3.org/1999/xlink" version="1.1"><rect x="0" y="0" width="900" height="600" fill="#1e1e1e"></rect><path d="M0 405L37.5 404.8C75 404.7 150 404.3 225 403.8C300 403.3 375 402.7 450 385.5C525 368.3 600 334.7 675 319.2C750 303.7 825 306.3 862.5 307.7L900 309L900 601L862.5 601C825 601 750 601 675 601C600 601 525 601 450 601C375 601 300 601 225 601C150 601 75 601 37.5 601L0 601Z" fill="#303030"></path><path d="M0 396L37.5 388.3C75 380.7 150 365.3 225 372C300 378.7 375 407.3 450 407C525 406.7 600 377.3 675 378.3C750 379.3 825 410.7 862.5 426.3L900 442L900 601L862.5 601C825 601 750 601 675 601C600 601 525 601 450 601C375 601 300 601 225 601C150 601 75 601 37.5 601L0 601Z" fill="#292929"></path><path d="M0 438L37.5 434.8C75 431.7 150 425.3 225 428.8C300 432.3 375 445.7 450 447.2C525 448.7 600 438.3 675 441.2C750 444 825 460 862.5 468L900 476L900 601L862.5 601C825 601 750 601 675 601C600 601 525 601 450 601C375 601 300 601 225 601C150 601 75 601 37.5 601L0 601Z" fill="#232323"></path><path d="M0 441L37.5 448.3C75 455.7 150 470.3 225 469.7C300 469 375 453 450 447.7C525 442.3 600 447.7 675 451.8C750 456 825 459 862.5 460.5L900 462L900 601L862.5 601C825 601 750 601 675 601C600 601 525 601 450 601C375 601 300 601 225 601C150 601 75 601 37.5 601L0 601Z" fill="#1d1d1d"></path><path d="M0 510L37.5 504.5C75 499 150 488 225 488.3C300 488.7 375 500.3 450 502.3C525 504.3 600 496.7 675 496.5C750 496.3 825 503.7 862.5 507.3L900 511L900 601L862.5 601C825 601 750 601 675 601C600 601 525 601 450 601C375 601 300 601 225 601C150 601 75 601 37.5 601L0 601Z" fill="#171717"></path><path d="M0 549L37.5 548.2C75 547.3 150 545.7 225 545C300 544.3 375 544.7 450 543C525 541.3 600 537.7 675 542.2C750 546.7 825 559.3 862.5 565.7L900 572L900 601L862.5 601C825 601 750 601 675 601C600 601 525 601 450 601C375 601 300 601 225 601C150 601 75 601 37.5 601L0 601Z" fill="#101010"></path></svg>